#!OML:ASF G:\JayActor3\Patient Classification 1\Patient 1\Session 6\male.ASF
:FULLY-SPECIFIED
:DEGREES
1169
root 2.89013 15.7447 -22.5005 538.257 -33.6583 -546.259
lowerback -5.17408 1.19629 2.62481
upperback -0.339221 1.47103 -2.54213
thorax 2.68696 0.76225 -3.99411
lowerneck -3.01997 3.67818 3.22128
upperneck 28.9468 5.46783 -11.6081
head 10.0702 0.719053 -4.36548
rclavicle 8.58998e-014 -1.47101e-014
rhumerus -0.656408 22.109 -90.6461
rradius 138.161
rwrist -16.9602
rhand 9.06205 -35.5828
rfingers 7.12502
rthumb 34.2362 -62.3138
lclavicle 8.58998e-014 -1.47101e-014
lhumerus -38.9263 28.7527 66.9119
lradius 31.7474
lwrist 23.5757
lhand -14.5229 8.45463
lfingers 7.12502
lthumb 11.6249 38.1122
rfemur -25.9067 -0.831958 8.89822
rtibia 52.9159
rfoot -20.6328 -14.8467
rtoes -4.14343
lfemur 0.090461 28.8362 -26.3149
ltibia 29.1701
lfoot -23.9429 -4.77725
ltoes 0.584487
1170
root 2.89506 15.7455 -22.505 538.301 -33.9643 -546.278
lowerback -5.18384 1.26734 2.61482
upperback -0.366592 1.56576 -2.66403
thorax 2.67601 0.807969 -4.10821
lowerneck -2.98395 3.48365 2.95639
upperneck 29.1427 5.09525 -11.0591
head 10.0801 0.571899 -4.15879
rclavicle 1.35546e-014 2.19657e-014
rhumerus -0.545252 21.8073 -90.6629
rradius 138.387
rwrist -17.1402
rhand 9.23132 -35.686
rfingers 7.12502
rthumb 34.3969 -62.3808
lclavicle 1.35546e-014 2.19657e-014
lhumerus -38.8771 28.9296 66.7439
lradius 31.4558
lwrist 23.5146
lhand -14.6024 8.4763
lfingers 7.12502
lthumb 11.5482 38.1382
rfemur -25.8504 -1.02808 8.88578
rtibia 52.9396
rfoot -20.7171 -14.8908
rtoes -4.09289
lfemur 0.0829401 28.8198 -26.26
ltibia 29.1714
lfoot -23.9089 -5.06391
ltoes 0.663763
1171
root 2.89979 15.7459 -22.5103 538.359 -34.2766 -546.339
lowerback -5.18881 1.33778 2.55629
upperback -0.393999 1.66205 -2.79001
thorax 2.66158 0.853591 -4.19905
lowerneck -2.93346 3.28626 2.67102
upperneck 29.3322 4.7109 -10.482
head 10.0865 0.420676 -3.93925
rclavicle -1.26477e-014 4.57702e-014
rhumerus -0.467585 21.5067 -90.6775
rradius 138.606
rwrist -17.3311
rhand 9.37863 -35.7732
rfingers 7.12502
rthumb 34.5368 -62.4361
lclavicle -1.26477e-014 4.57702e-014
lhumerus -38.8437 29.1455 66.5455
lradius 31.1271
lwrist 23.4307
lhand -14.6565 8.51844
lfingers 7.12502
lthumb 11.496 38.1832
rfemur -25.7857 -1.21403 8.83235
rtibia 52.9734
rfoot -20.8184 -14.9251
rtoes -4.00291
lfemur 0.0986199 28.7912 -26.24
ltibia 29.1516
lfoot -23.868 -5.33648
ltoes 0.739118
1172
root 2.90437 15.7462 -22.5163 538.424 -34.5883 -546.426
lowerback -5.19739 1.40926 2.46797
upperback -0.414756 1.76114 -2.91944
thorax 2.65574 0.900371 -4.2763
lowerneck -2.88173 3.08851 2.37175
upperneck 29.5181 4.31872 -9.8778
head 10.0939 0.267546 -3.70819
rclavicle -7.09382e-014 -1.28216e-014
rhumerus -0.412227 21.2133 -90.6909
rradius 138.814
rwrist -17.5443
rhand 9.48129 -35.834
rfingers 7.12502
rthumb 34.6342 -62.4747
lclavicle -7.09382e-014 -1.28216e-014
lhumerus -38.8188 29.3987 66.3183
lradius 30.7702
lwrist 23.3177
lhand -14.6725 8.59753
lfingers 7.12502
lthumb 11.4806 38.2632
rfemur -25.7153 -1.38545 8.75498
rtibia 53.0182
rfoot -20.9327 -14.9599
rtoes -3.89564
lfemur 0.13885 28.7561 -26.2392
ltibia 29.1082
lfoot -23.8191 -5.59751
ltoes 0.813509
1173
root 2.90868 15.7461 -22.5231 538.495 -34.9031 -546.542
lowerback -5.20273 1.47999 2.34544
upperback -0.432016 1.86082 -3.05313
thorax 2.65096 0.946915 -4.33859
lowerneck -2.82501 2.89119 2.06292
upperneck 29.702 3.91934 -9.2502
head 10.1028 0.112603 -3.46786
rclavicle -7.37367e-015 1.05853e-014
rhumerus -0.390343 20.9276 -90.7088
rradius 139.018
rwrist -17.7946
rhand 9.53151 -35.8927
rfingers 7.12502
rthumb 34.6819 -62.5224
lclavicle -7.37367e-015 1.05853e-014
lhumerus -38.81 29.6935 66.0527
lradius 30.382
lwrist 23.1645
lhand -14.6646 8.67314
lfingers 7.12502
lthumb 11.4883 38.3383
rfemur -25.6337 -1.54976 8.65028
rtibia 53.0733
rfoot -21.0584 -14.9941
rtoes -3.76734
lfemur 0.210667 28.721 -26.2552
ltibia 29.038
lfoot -23.7616 -5.86168
ltoes 0.900585
1174
root 2.91293 15.7458 -22.5302 538.586 -35.2288 -546.702
lowerback -5.20322 1.5494 2.18467
upperback -0.44856 1.96035 -3.19825
thorax 2.64334 0.992581 -4.39127
lowerneck -2.76607 2.69534 1.75256
upperneck 29.8879 3.5132 -8.59923
head 10.1155 -0.0433476 -3.21985
rclavicle 2.62147e-014 1.59028e-015
rhumerus -0.403259 20.6418 -90.7358
rradius 139.216
rwrist -18.077
rhand 9.53126 -35.9383
rfingers 7.12502
rthumb 34.6816 -62.5681
lclavicle 2.62147e-014 1.59028e-015
lhumerus -38.8176 30.015 65.7506
lradius 29.971
lwrist 22.981
lhand -14.6384 8.75238
lfingers 7.12502
lthumb 11.5135 38.4162
rfemur -25.5436 -1.72054 8.50405
rtibia 53.1367
rfoot -21.1987 -15.011
rtoes -3.60889
lfemur 0.305128 28.6825 -26.3024
ltibia 28.947
lfoot -23.6967 -6.13083
ltoes 0.990451
1175
root 2.91718 15.7457 -22.5373 538.681 -35.5685 -546.87
lowerback -5.20068 1.6175 2.01796
upperback -0.4654 2.05799 -3.34871
thorax 2.6335 1.03699 -4.44643
lowerneck -2.70932 2.50059 1.44755
upperneck 30.0751 3.10089 -7.93249
head 10.1333 -0.200068 -2.96802
rclavicle 3.93345e-014 5.86415e-015
rhumerus -0.446625 20.3451 -90.7716
rradius 139.414
rwrist -18.3861
rhand 9.51494 -35.9962
rfingers 7.12502
rthumb 34.6661 -62.6296
lclavicle 3.93345e-014 5.86415e-015
lhumerus -38.8387 30.3521 65.4194
lradius 29.5467
lwrist 22.8031
lhand -14.6145 8.81966
lfingers 7.12502
lthumb 11.5365 38.4822
rfemur -25.4477 -1.91674 8.3495
rtibia 53.2005
rfoot -21.3399 -15.0122
rtoes -3.43781
lfemur 0.406955 28.6275 -26.3567
ltibia 28.8451
lfoot -23.6266 -6.39663
ltoes 1.08012
1176
root 2.92147 15.7455 -22.5443 538.778 -35.9165 -547.035
lowerback -5.19833 1.68934 1.86059
upperback -0.481748 2.15966 -3.50657
thorax 2.62527 1.08339 -4.5144
lowerneck -2.65631 2.30432 1.15247
upperneck 30.2631 2.67721 -7.24596
head 10.1561 -0.358801 -2.71213
rclavicle 4.47266e-016 3.95581e-014
rhumerus -0.516098 20.0205 -90.8185
rradius 139.611
rwrist -18.7081
rhand 9.5217 -36.0891
rfingers 7.12502
rthumb 34.6725 -62.721
lclavicle 4.47266e-016 3.95581e-014
lhumerus -38.8623 30.6954 65.0622
lradius 29.1053
lwrist 22.6421
lhand -14.6208 8.86733
lfingers 7.12502
lthumb 11.5305 38.5302
rfemur -25.3477 -2.12872 8.1974
rtibia 53.2591
rfoot -21.4801 -15.0057
rtoes -3.24023
lfemur 0.502758 28.5594 -26.41
ltibia 28.7509
lfoot -23.5595 -6.65606
ltoes 1.15802
1177
root 2.92613 15.7457 -22.5512 538.866 -36.2692 -547.173
lowerback -5.19191 1.76444 1.72618
upperback -0.502518 2.26396 -3.66403
thorax 2.61136 1.13115 -4.59503
lowerneck -2.60449 2.10939 0.865727
upperneck 30.4522 2.24583 -6.54079
head 10.1839 -0.518372 -2.45198
rclavicle -1.87852e-014 -2.26615e-014
rhumerus -0.609506 19.6739 -90.8763
rradius 139.804
rwrist -19.0258
rhand 9.55219 -36.2002
rfingers 7.12502
rthumb 34.7015 -62.8254
lclavicle -1.87852e-014 -2.26615e-014
lhumerus -38.8977 31.031 64.6868
lradius 28.664
lwrist 22.5277
lhand -14.6697 8.91376
lfingers 7.12502
lthumb 11.4834 38.5792
rfemur -25.2464 -2.33962 8.07225
rtibia 53.3066
rfoot -21.6267 -15.0008
rtoes -3.0351
lfemur 0.578208 28.4707 -26.4467
ltibia 28.6773
lfoot -23.4985 -6.89789
ltoes 1.22537
1178
root 2.93125 15.7463 -22.558 538.921 -36.6143 -547.239
lowerback -5.18054 1.84482 1.65036
upperback -0.530381 2.372 -3.8085
thorax 2.58965 1.18146 -4.69537
lowerneck -2.55151 1.91958 0.591689
upperneck 30.6388 1.81364 -5.82672
head 10.2155 -0.676138 -2.19107
rclavicle -5.40197e-014 9.93923e-015
rhumerus -0.725718 19.3103 -90.9434
rradius 139.994
rwrist -19.326
rhand 9.62438 -36.3363
rfingers 7.12502
rthumb 34.77 -62.9457
lclavicle -5.40197e-014 9.93923e-015
lhumerus -38.9523 31.3678 64.2869
lradius 28.2215
lwrist 22.4509
lhand -14.7542 8.94327
lfingers 7.12502
lthumb 11.4018 38.6133
rfemur -25.1483 -2.51466 8.0207
rtibia 53.3373
rfoot -21.7857 -15.0241
rtoes -2.82263
lfemur 0.619298 28.3567 -26.4323
ltibia 28.6363
lfoot -23.4478 -7.10616
ltoes 1.27145
1179
root 2.93633 15.7469 -22.5651 538.956 -36.9513 -547.273
lowerback -5.16559 1.92544 1.59762
upperback -0.560722 2.47897 -3.9447
thorax 2.56416 1.2315 -4.80052
lowerneck -2.49251 1.74078 0.325817
upperneck 30.8168 1.39067 -5.10929
head 10.2481 -0.828515 -1.92945
rclavicle -1.00138e-013 1.15295e-014
rhumerus -0.858562 18.9499 -91.0182
rradius 140.177
rwrist -19.6066
rhand 9.71629 -36.474
rfingers 7.12502
rthumb 34.8572 -63.0633
lclavicle -1.00138e-013 1.15295e-014
lhumerus -39.0394 31.7191 63.8552
lradius 27.7825
lwrist 22.4011
lhand -14.8583 8.97265
lfingers 7.12502
lthumb 11.3015 38.6482
rfemur -25.0416 -2.65285 8.00224
rtibia 53.3515
rfoot -21.9559 -15.0667
rtoes -2.60294
lfemur 0.638885 28.2341 -26.3926
ltibia 28.6354
lfoot -23.416 -7.29605
ltoes 1.30626
1180
root 2.94155 15.748 -22.5725 538.967 -37.2761 -547.261
lowerback -5.14547 2.00337 1.57227
upperback -0.5975 2.58078 -4.06414
thorax 2.52936 1.27925 -4.90445
lowerneck -2.42788 1.57627 0.0595637
upperneck 30.9888 0.982974 -4.39191
head 10.2825 -0.974528 -1.66636
rclavicle -3.40419e-014 2.0276e-014
rhumerus -1.00862 18.6132 -91.0998
rradius 140.345
rwrist -19.8635
rhand 9.80618 -36.5753
rfingers 7.12502
rthumb 34.9425 -63.1448
lclavicle -3.40419e-014 2.0276e-014
lhumerus -39.176 32.083 63.3893
lradius 27.3608
lwrist 22.3654
lhand -14.9608 9.02958
lfingers 7.12502
lthumb 11.2026 38.7105
rfemur -24.9317 -2.75851 8.03154
rtibia 53.3482
rfoot -22.1259 -15.1359
rtoes -2.39272
lfemur 0.63148 28.1028 -26.3178
ltibia 28.6748
lfoot -23.403 -7.46478
ltoes 1.33372
1181
root 2.94676 15.7495 -22.5808 538.93 -37.5757 -547.17
lowerback -5.11927 2.0763 1.59321
upperback -0.643 2.6738 -4.15214
thorax 2.48219 1.32329 -5.00285
lowerneck -2.3591 1.43142 -0.212466
upperneck 31.1571 0.601622 -3.68671
head 10.32 -1.11151 -1.40425
rclavicle 1.99779e-014 1.63003e-014
rhumerus -1.17737 18.3203 -91.1875
rradius 140.502
rwrist -20.1067
rhand 9.89369 -36.6521
rfingers 7.12502
rthumb 35.0255 -63.2022
lclavicle 1.99779e-014 1.63003e-014
lhumerus -39.3878 32.473 62.8791
lradius 26.9649
lwrist 22.3295
lhand -15.053 9.10532
lfingers 7.12502
lthumb 11.1136 38.791
rfemur -24.8201 -2.80824 8.14057
rtibia 53.3281
rfoot -22.3019 -15.2388
rtoes -2.17104
lfemur 0.59997 27.964 -26.1807
ltibia 28.7511
lfoot -23.409 -7.60066
ltoes 1.3445
1182
root 2.95177 15.7508 -22.5896 538.877 -37.8682 -547.059
lowerback -5.10074 2.13799 1.62021
upperback -0.684498 2.75195 -4.22318
thorax 2.44171 1.36035 -5.08788
lowerneck -2.2852 1.30538 -0.49348
upperneck 31.3076 0.24853 -2.99542
head 10.3544 -1.23809 -1.14245
rclavicle 3.93594e-014 -5.96354e-014
rhumerus -1.34329 18.0722 -91.2764
rradius 140.645
rwrist -20.3338
rhand 9.98288 -36.6915
rfingers 7.12502
rthumb 35.1101 -63.2218
lclavicle 3.93594e-014 -5.96354e-014
lhumerus -39.6614 32.9066 62.323
lradius 26.5852
lwrist 22.2654
lhand -15.1265 9.20139
lfingers 7.12502
lthumb 11.0427 38.8909
rfemur -24.7018 -2.83121 8.2706
rtibia 53.2985
rfoot -22.4752 -15.3647
rtoes -1.99087
lfemur 0.555764 27.8207 -26.0271
ltibia 28.857
lfoot -23.4322 -7.72108
ltoes 1.33673
